<?xml version="1.0" standalone="no"?>
<!DOCTYPE svg PUBLIC "-//W3C//DTD SVG 20010904//EN"
 "http://www.w3.org/TR/2001/REC-SVG-20010904/DTD/svg10.dtd">
<svg version="1.0" xmlns="http://www.w3.org/2000/svg"
 width="40.000000pt" height="40.000000pt" viewBox="0 0 40.000000 40.000000"
 preserveAspectRatio="xMidYMid meet">
<metadata>
Created by potrace 1.13, written by Peter Selinger 2001-2015
</metadata>
<g transform="translate(0.000000,40.000000) scale(0.100000,-0.100000)"
fill="#000000" stroke="none">
<path d="M260 341 c-8 -5 -51 -14 -96 -19 -124 -16 -151 -36 -128 -96 8 -22
24 -20 24 3 0 10 6 23 13 29 15 13 89 33 96 26 3 -2 -12 -55 -32 -117 -42
-129 -42 -127 -22 -127 11 0 14 7 9 24 -4 17 0 28 15 38 17 12 20 22 15 45 -3
17 -1 39 5 50 9 15 10 12 5 -14 -5 -26 -1 -39 20 -64 30 -36 29 -53 -2 -57
-16 -2 -25 4 -31 20 -8 20 -10 21 -16 5 -18 -45 55 -64 93 -24 29 31 28 40 -9
81 -17 20 -28 40 -24 46 8 14 38 13 53 -2 8 -8 12 -8 12 -1 0 19 -29 36 -53
31 l-24 -5 16 38 c15 35 20 39 66 46 41 7 50 12 50 28 0 22 -30 30 -55 16z"/>
</g>
</svg>
